<?xml version="1.0" encoding="utf-8"?>
<!-- Generator: Adobe Illustrator 15.0.2, SVG Export Plug-In . SVG Version: 6.00 Build 0)  -->
<!DOCTYPE svg PUBLIC "-//W3C//DTD SVG 1.1//EN" "http://www.w3.org/Graphics/SVG/1.1/DTD/svg11.dtd">
<svg version="1.1" xmlns="http://www.w3.org/2000/svg" xmlns:xlink="http://www.w3.org/1999/xlink" x="0px" y="0px" width="50px"
	 height="100px" viewBox="0 0 50 100" enable-background="new 0 0 50 100" xml:space="preserve">
<g class="nest">
	<path class="nest_base" fill-rule="evenodd" clip-rule="evenodd" fill="#A4C16F" d="M46.661,32.522c0,0.851-0.638,1.531-1.263,2.231
		c0.078-0.481,0.138-0.957,0.169-1.422c0.155-2.262-0.003-4.486-0.381-6.672c0.693-1.695,1.18-3.488,0.696-5.229
		c-0.198-0.206-0.396-0.413-0.596-0.62c-0.186-0.617-0.752-2.544-1.585-2.544c1.166,2.431,1.286,4.308,1.08,6.381
		c-0.687-2.904-1.742-5.732-2.97-8.476c0.046-1.037,0.092-2.073,0.137-3.109c-0.016-0.094-0.033-0.186-0.049-0.279
		c-0.054,0.004-0.108,0.008-0.162,0.011c-0.395,0.235-0.669,0.771-0.833,1.429c-0.496-1.029-1.008-2.048-1.53-3.051
		c-0.419-0.765-0.837-1.529-1.255-2.294c-0.732-1.14-1.466-2.278-2.199-3.417c-0.225-0.4-0.44-0.99-0.691-1.57
		c-0.121-1.469-0.561-2.992-1.446-3.287h-0.04c0,0.475,0.024,0.963,0.064,1.451c-0.357-0.109-0.779-0.023-1.289,0.369
		c-0.366,0.404-0.732,0.811-1.099,1.215c0.296,0.941,0.592,1.883,0.888,2.823c0.481,1.462,1.051,3.507,0.969,5.34
		c-1.28,1.214-3.768,1.523-3.768,2.501c1.078,0,2.512-1.502,3.058-1.502v0.045c-0.128,0.383-1.479,1.484-1.186,1.871
		c0.034,0.006,0.068,0.012,0.103,0.018c0.445-0.261,0.951-0.641,1.418-1.092c-0.33,0.804-0.892,1.482-1.803,1.92
		c-0.968,0.466-2.088,0.5-3.098,0.129c-1.731-0.636-2.445-2.32-2.61-4.255c0.439-0.476,0.944-0.89,1.09-1.512
		c0.012-0.178,0.023-0.356,0.034-0.534c-0.179,0.041-0.355,0.082-0.534,0.123c-0.047-0.252,1.274-3.724,1.274-4.93
		c-0.229,0.588-0.457,1.178-0.685,1.766c-0.253,0.625-0.657,1.258-1.042,1.906c0.222-1.516,0.619-2.93,0.986-3.877
		c0.272-0.702,1.734-3.838,0.726-4.289c-1.142-0.381-2.433,0.532-3.252,1.146l0.236-0.643c-1.357,2.173-2.597,4.449-3.714,6.791
		c-1.133,1.006-2.376,1.971-2.228,2.758c0.017,0.021,0.034,0.045,0.051,0.067c0.025-0.001,0.051-0.003,0.077-0.004
		c0.119-0.12,0.237-0.241,0.355-0.362c-0.078,0.198-0.157,0.396-0.235,0.594c-0.431,0.994-0.496,1.631-0.322,2.379
		c-1.062,2.861-1.923,5.789-2.525,8.746c-0.096,0.471-0.197,0.938-0.296,1.402c0.137-0.965,0.273-1.931,0.411-2.896
		c0.145-0.763-0.4-1.105-0.49-1.738c0.083-0.697,0.166-1.396,0.25-2.094c-0.296,0.846-0.592,1.691-0.888,2.537
		c-0.094-0.041-0.187-0.08-0.281-0.119c0.159,0.6,0.319,1.201,0.479,1.802c0.082,1.713-0.489,3.729-0.01,5.399
		c-0.111,0.859-0.166,1.73-0.119,2.625c0.012,0.223,0.03,0.444,0.048,0.667c-0.663,1.7-1.122,4.61-0.311,5.422
		c0.098-0.366,0.196-0.733,0.294-1.101c0.379,0.84,0.759,1.68,1.139,2.52c-0.161-0.953-0.322-1.906-0.483-2.859
		c0.604,2.486,1.581,4.888,2.897,7.016c0.258,1.828,0.711,4.225,1.737,4.225c-0.393,0-0.473-1.59-0.458-1.844
		c0.01-0.164,0.012-0.342,0.014-0.518c0.88,1.125,1.874,2.131,2.969,2.992c0,0,0,0,0.001,0.001
		c0.818,0.677,1.637,1.354,2.454,2.03c0.33,0.002,0.659,0.006,0.988,0.008c2.305,0.961,4.922,1.329,7.817,0.885
		c0.567-0.087,1.041-0.301,1.504-0.542c0.527-0.077,0.973-0.258,1.364-0.688c0.69-0.302,1.381-0.604,2.072-0.906
		c-0.21,0.254-0.415,0.518-0.597,0.809c-0.116,0.184-0.939,1.825-0.398,1.825c0.188-0.784,0.715-1.366,1.406-1.772
		c0.023-0.002,0.046-0.003,0.068-0.004c0.027,0.263,0.054,0.525,0.081,0.789h0.023c0.784-1.241,1.858-2.569,2.197-4.051
		c1.328-1.594,2.365-3.545,3.056-5.551c0.652-0.493,1.117-2.113,1.279-2.531c0.248-0.256,0.496-0.514,0.743-0.77
		c0.01-0.669,0.02-1.338,0.029-2.007C46.668,32.523,46.664,32.523,46.661,32.522z"/>
	<path class="nest_inside_base" fill-rule="evenodd" clip-rule="evenodd" fill="#677944" d="M37.782,39.122c-0.26-0.985-0.8-1.948-1.303-2.692
		c-0.083-0.123-0.166-0.245-0.249-0.367c-0.062-0.093-0.123-0.186-0.185-0.273c-0.688-1.014-1.419-2.006-2.447-2.707
		c-3.457-2.355-11.964-5.438-14.564-0.179c-0.732,1.481,0.351,2.702,0.73,4.069c0.594,2.14,1.022,2.438,2.304,4.021l1.271,1.936
		c0.933,0.123,1.994,0.586,2.958,0.997c0.683,0.187,1.365,0.374,2.048,0.56c1.533-0.008,3.068-0.016,4.602-0.021
		c1.02-0.74,2.117-1.361,3.328-0.43c0.209-0.02,0.423-0.039,0.625-0.027c0.023-0.027,0.057-0.041,0.079-0.071
		c0.104-0.046,0.211-0.091,0.292-0.14C38.601,43,38.48,41.07,37.782,39.122z"/>
	<path class="nest_inside_shadow" fill-rule="evenodd" clip-rule="evenodd" fill="#4E5C34" d="M37.006,36.549c-0.81-1.633-2.006-3.123-3.317-4.236
		c-1.361-1.156-3.096-1.812-4.813-2.219c-1.304-0.196-2.608-0.393-3.912-0.588c-0.931,0.006-1.86,0.012-2.79,0.018
		c-3.253,0.582-4.015,4.232-3.079,6.947c0.177,0.514,0.457,1.428,0.927,1.881c0.16,0.33,0.377,0.712,0.722,1.143
		c0.284,0.003,0.626-0.123,1.035-0.249c0.294-0.618,0.407-0.503,1.084-0.75c1.215-0.53,0.725-0.637,1.776-1.405
		c1.544-1.129,4.167-1.314,5.943-0.707c2.649,0.906,2.551,3.578,4.73,4.926c0.552,0.365,0.691,0.35,1.487,0.678
		c0.62,0.366,0.528,1.547,1.409,0.652C39.246,41.404,38.262,38.652,37.006,36.549z"/>
	<path class="nest_outside_shadow" fill-rule="evenodd" clip-rule="evenodd" fill="#93AD64" d="M20.407,40.551c-0.027-0.271-0.054-0.545-0.081-0.816
		c-1.348-2.709-2.058-4.607-2.058-7.689c-0.236,0.293-0.471,0.586-0.707,0.879c-0.327-0.327,1.187-6.62,1.187-6.62
		c-0.535,0.354-1.07,0.71-1.604,1.063c0.085-0.336,0.169-0.674,0.253-1.01c-0.36,0.299-0.721,0.6-1.081,0.899
		c-0.032-0.003-0.063-0.007-0.095-0.011c-0.615-0.799,0.342-2.562,0.342-3.453c-0.518,0.217-1.917,6.854-1.917,7.805
		c0.343-0.464,0.686-0.928,1.028-1.392c0.02-0.002,0.04-0.005,0.06-0.007c0.068,0.723,0.137,1.444,0.206,2.166
		c0.357,1.191,0.713,2.384,1.07,3.575c0.342,0.981,1.163,1.708,1.5,2.568c0.242,0.934,0.484,1.868,0.726,2.802
		c0.147-0.066,0.294-0.133,0.44-0.199c0.554,0.597,1.107,1.193,1.66,1.791l0.287-0.572c0.047,0.065,0.095,0.132,0.143,0.197
		c-0.31-0.687-0.619-1.374-0.928-2.062C20.694,40.494,20.551,40.522,20.407,40.551z M33.361,45.211
		c-0.299-0.012-0.598-0.023-0.896-0.034l0.067-0.688c-0.052-1.107-2.317-1.339-2.974-0.959v0.039
		c0.122,0.204,1.264,0.58,2.122,1.055c0.009,0.053,0.012,0.103,0.002,0.149c-0.066,0.077-0.132,0.155-0.198,0.231
		c-0.418,0.088-3.567,0.439-3.679,0.4c-1.028-0.494-2.058-0.988-3.086-1.482c0.056,0.009,0.111,0.018,0.166,0.027
		c-0.018-0.017-0.035-0.033-0.053-0.049c-0.235-0.01-0.472-0.02-0.707-0.029c0.074,0.492,0.148,0.984,0.222,1.477
		c-0.073,0.001-0.146,0.002-0.22,0.004c0.04,0.105,0.08,0.209,0.119,0.314c1.035,1.088,5.562,1.627,6.976,1.698
		c0.21,0.011,2.481,0.174,2.481-0.304c-0.281-0.221-0.562-0.441-0.843-0.662C33.03,46.155,33.644,45.527,33.361,45.211z
		 M32.374,45.173c-0.046-0.047-0.085-0.104-0.123-0.167c0.067,0.056,0.134,0.111,0.185,0.17
		C32.416,45.175,32.395,45.174,32.374,45.173z M35.719,27.645c0.056,0.062,0.112,0.125,0.167,0.188l-0.001-0.003
		C35.83,27.768,35.774,27.706,35.719,27.645z M18.868,30.65l0.179-0.141c0.622-0.961,3.872-1.893,3.872-2.636
		c-0.556,0.134-1.111,0.269-1.667,0.402c0,0,1.916-2.063,1.964-2.132c0.081-0.103,0.163-0.205,0.244-0.307
		c-0.66,0.412-1.321,0.824-1.981,1.236c-1.526,0.957-2.463,1.818-2.734,3.695C18.786,30.73,18.827,30.69,18.868,30.65z
		 M39.928,32.968l-0.077-0.589c0.113,0.266,0.226,0.533,0.339,0.8c0.026-0.006,0.053-0.012,0.079-0.017
		c0.78-0.247,0.485-2.636,0.53-3.218c0.274-0.732,0.548-1.466,0.822-2.198c0.369-1.4,0.726-5.193-0.912-6.013
		c-0.021,0.003-0.044,0.005-0.065,0.007c-0.221,0.727,0.766,5.883-0.46,6.303c-0.014-0.016-0.026-0.029-0.039-0.043
		c-0.05-0.597,0.024-2.172-0.623-2.51c0.065,0.622,0.131,1.244,0.196,1.865c-0.121,1.283-0.241,2.567-0.362,3.851
		C39.546,31.793,39.737,32.381,39.928,32.968z M42.573,37.865c0.378-0.865,0.757-1.731,1.136-2.598
		c0.662-2.102,1.132-4.355,0.749-6.553c-0.104-0.602-0.356-2.457-1.068-2.688c-0.004,0-0.008,0.002-0.012,0.002
		c0,2.421,0.382,4.592-0.23,7.007c-0.331,0.691-0.662,1.383-0.994,2.075c0-1.326,0.377-2.669,0.308-4.059
		c-0.017-0.227-0.033-0.454-0.05-0.681c0,1.519-0.68,2.897-0.946,4.379c-0.199,1.408-0.397,2.817-0.596,4.226
		c-0.161,0.621-0.393,2.291-1.023,2.639h-0.059c-0.002-0.652-0.005-1.305-0.008-1.956c0,1.653-1.511,2.868-1.26,4.539
		l-0.083-0.728l-0.003,0.164c-0.312,0.831-1.482,0.658-2.085,0.959c0.058,0.143,0.115,0.283,0.173,0.426
		c-0.069,0.084-0.138,0.167-0.207,0.25c-0.099-0.002-0.197-0.005-0.295-0.008c0.151,0.094,0.304,0.188,0.457,0.281
		c1.68,0.582,2.854-1.464,3.691-2.402c0.118,0.076,0.236,0.153,0.354,0.23c0.401,0,2.597-4.418,3.612-6.087
		C43.669,37.671,42.895,37.988,42.573,37.865z M44.505,36.736c-0.089,0.102-0.218,0.295-0.372,0.548
		C44.35,37.104,44.505,36.911,44.505,36.736z M32.264,31.625c0.615,0.559,1.748,4.132,2.195,4.132
		c0.019-0.02,0.037-0.04,0.056-0.06c0.524-1.348-1.574-4.104-1.574-4.703L32.264,31.625z M36.02,40.563
		c0.04,0.055,0.08,0.109,0.121,0.164c0-0.916,0.409-4.144,0.246-5.899c0.122,0.371,0.249,0.727,0.458,0.965
		c0.093,0.02,0.185,0.039,0.276,0.059c0.085-0.324,0.169-0.648,0.253-0.973c0.022,0,0.32,1.158,0.739,1.264
		c0.218,0.966,0.437,1.932,0.654,2.898c0.801,0,0.748-3.886,0.426-4.576c-0.242-0.52-0.643-0.344-0.896-0.667
		c-0.292-1.547-0.248-2.977-1.038-4.424c-0.458-0.515-0.916-1.028-1.374-1.542c0.75,1.406,0.219,2.737,0.543,4.15
		c0.148,0.648,1.004,1.371,0.691,2.07c-0.124,0.203-0.827-0.427-0.908-0.525l-0.343,0.07c0.051,0.071,0.083,0.162,0.125,0.242
		l-0.432,0.578C36.422,36.295,35.378,38.584,36.02,40.563z M26.229,29.23l-0.7,0.201c-0.745-0.049-1.325,0.134-1.846,0.406
		c0.219-0.473,0.486-0.865,0.863-1.094l-0.549,0.394c-0.38,0.156-0.756,0.611-1.12,1.196c-0.752,0.543-1.466,1.171-2.498,1.412
		c-0.579,0.055-1.158,0.111-1.736,0.166c0.191,0.202,0.381,0.404,0.572,0.606c1.161,0.203,1.991-0.003,2.712-0.399
		c-0.654,1.348-1.233,2.635-1.673,2.635c1.939,0,2.422-1.858,2.936-3.546c0.525-0.454,1.059-0.953,1.709-1.407
		C25.342,29.611,25.785,29.421,26.229,29.23z M32.549,44.323l-0.016,0.165c0,0.013,0.009,0.021,0.009,0.035
		C32.544,44.457,32.547,44.391,32.549,44.323z"/>
	<path class="nest_outside_highlight" fill-rule="evenodd" clip-rule="evenodd" fill="#CEE18D" d="M25.299,0.993c-0.016-0.003-0.032-0.007-0.048-0.011
		c-0.119,0.086-0.223,0.193-0.31,0.325C25.057,1.203,25.168,1.099,25.299,0.993z M25.196,0.97
		c0.018,0.005,0.036,0.009,0.054,0.013c0.051-0.037,0.092-0.088,0.15-0.115L25.196,0.97z M22.455,5.215
		c-0.344,0.554-0.689,1.107-1.034,1.661c0.285-0.254,0.569-0.508,0.853-0.761c0.316-0.306,0.66-0.533,0.983-0.791
		c-0.162,0.611-0.325,1.223-0.487,1.835c-0.485,0.911-2.549,3.189-2.549,4.13c0.003,0.005,0.006,0.01,0.009,0.016
		c1.874,0,3.531-4.451,3.596-6.559c0.047-0.061,0.101-0.11,0.145-0.179c0.443-0.696,0.402-2.394,0.97-3.26
		C23.692,2.438,23.245,3.535,22.455,5.215z M19.698,12.461c0.011,0.091,0.021,0.181,0.032,0.271c0.02,0,0.04,0,0.059,0
		c0.033-0.033,0.074-0.075,0.098-0.101C19.824,12.575,19.761,12.518,19.698,12.461z M20.511,14.887
		c-0.166-0.021-0.332-0.045-0.498-0.067c0.019-0.694,0.038-1.39,0.057-2.083c-0.094-0.002-0.188-0.002-0.281-0.004
		c-0.481,0.494-1.777,1.848-1.506,2.475c0.168-0.014,0.336-0.027,0.504-0.041c0.146,1.32-2.428,3.838-1.362,5.971
		c0.145-0.545,0.288-1.088,0.432-1.633c0.542-1.698,2.039-2.581,2.583-4.246C20.464,15.135,20.487,15.011,20.511,14.887z
		 M19.726,9.287c-0.002,0.031-0.005,0.062-0.007,0.094c0,0,0,0,0.001,0C19.721,9.35,19.724,9.318,19.726,9.287z M18.676,12.309
		c0.317-0.584,0.634-1.166,0.951-1.75c0.03-0.392,0.061-0.785,0.091-1.178c-0.347,0.367-1.876,2.305-1.076,2.93
		C18.654,12.31,18.665,12.309,18.676,12.309z M33.221,7.578c0.286-1.675-0.283-2.73-0.283-4.271
		c-0.05,0.008-0.101,0.018-0.151,0.027C32.825,3.223,32.863,3.111,32.901,3c-0.234,0.244-0.468,0.488-0.702,0.733
		c-0.129,0.62,0.63,3.919,0.928,4.449C33.158,7.981,33.189,7.779,33.221,7.578z M34.089,7.311l-0.091-0.424
		c-0.307,1.74,0.586,2.062,0.48,3.777c-0.17,0.916-0.341,1.832-0.511,2.748c0.05,0.01,0.1,0.018,0.148,0.025
		c0.183-0.161,0.942-2.046,0.942-2.046c0.018,0.168,0.035,0.336,0.052,0.504c0.036,0.967-0.529,2.176-0.375,3.065
		c0.037,0.009,0.074,0.018,0.111,0.026c0.432-0.168,0.637-0.856,0.743-1.249c0.473-1.748,0.125-3.878-0.711-5.451
		C34.615,7.961,34.353,7.636,34.089,7.311z M33.831,6.107c0.056,0.26,0.111,0.52,0.167,0.779c0.026-0.148,0.045-0.289,0.091-0.461
		C34.003,6.319,33.917,6.214,33.831,6.107z M30.759,16.951c0.177,0.049,0.354,0.098,0.53,0.146
		c0.825-0.336,1.686-1.012,2.067-1.828c0.055-0.123,0.109-0.246,0.164-0.369c0.008,0.004,0.016,0.008,0.023,0.012
		c0.04-0.045,0.081-0.09,0.121-0.136c-0.015-0.066-0.029-0.133-0.044-0.2C32.667,15.367,31.713,16.16,30.759,16.951z
		 M22.158,12.854c0.46,2.253-2.373,4.041-2.373,5.417c0.003,0.013,0.005,0.025,0.008,0.038c0.293-0.146,0.587-0.291,0.881-0.436
		c-0.301,0.936-0.603,1.871-0.904,2.808c0.009,0.188,0.019,0.378,0.028,0.566c0-1.101,1.289-2.087,1.824-2.928
		c0.857-1.347,1.363-4.153,0.651-5.577C22.234,12.779,22.196,12.816,22.158,12.854z M22.451,11.973
		c0.201-0.104,0.403-0.207,0.604-0.311c0.352,0.252-0.184,1.327,0.471,1.327c0,0,0.348-3.579,0.406-4.075
		c-0.079,0.113-0.158,0.225-0.236,0.337C23.275,9.902,22.362,11.123,22.451,11.973z M37.312,24.561
		c0.35,1.297-0.788,3.143,0.792,4.148l0.108-0.004c0.024-0.027,0.048-0.056,0.072-0.084c0.314-1.003-0.297-2.547-0.662-3.465
		L37.312,24.561z M39.517,14.902c0.112,0.135,0.239,0.302,0.37,0.483c-0.075-0.378-0.234-0.694-0.537-0.898L39.517,14.902z
		 M39.887,15.386c0.239,1.201-0.399,3.032-0.174,3.934c0.465,1.009,0.649-0.673,0.783-0.788c0.138,0.281,0.275,0.562,0.413,0.844
		c0.053-0.021,0.104-0.043,0.157-0.064C41.625,18.205,40.658,16.451,39.887,15.386z"/>
</g>
<g class="bird">
	<path class="bird_wings_light bird_right" fill-rule="evenodd" clip-rule="evenodd" fill="#F0D26B" d="M46.859,98.241c0.002,0,0.006,0.002,0.009,0.002
		c0-0.897-0.815-1.87-1.644-2.759c0.203-1.197-1.104-1.819-1.176-3.043c0.03-0.016,0.061-0.033,0.091-0.051
		c0.043,0.023,0.087,0.045,0.13,0.068c0.021-0.043,0.012-0.101,0.019-0.15c0.017-0.01,0.033-0.018,0.049-0.027
		c-0.011-0.037-0.021-0.074-0.032-0.111c-0.012-0.141-0.059-0.297-0.133-0.467c-0.103-0.363-0.207-0.725-0.31-1.088
		c0.093-0.085,0.187-0.17,0.28-0.255c0.158-0.415-0.458-1.287-0.719-1.562c0.023-0.088,0.049-0.177,0.072-0.265
		c0-0.351-0.337-2.192-0.843-2.192c0-0.265,0.689-2.647-0.681-2.647c-0.136-0.198-0.23-1.762-0.675-2.418
		c-0.327-0.484-0.953-0.847-1.29-1.018c-0.1-0.031-0.186-0.066-0.23-0.11c0,0,0.094,0.041,0.23,0.11
		c0.496,0.152,1.53,0.135,1.751-0.088c0-1.194-1.403-1.485-1.536-1.906c0.406-0.148,0.812-0.296,1.219-0.444
		c0.366-0.55,0.047-1.157-0.536-1.394c-0.001-0.007-0.001-0.015-0.002-0.021c0.441-0.087,0.884-0.173,1.325-0.26
		c0.351-0.92-2.139-2.065-2.735-2.065c0.156-0.105,0.314-0.212,0.472-0.317c-0.002-0.049-0.004-0.098-0.007-0.146l-0.448-0.287
		c-0.008-0.012-0.015-0.022-0.021-0.034c0.525-0.251,1.051-0.501,1.576-0.751c0.518-1.034-3.134-1.462-3.509-1.418
		c-0.174,0.026-0.349,0.053-0.522,0.08c0-0.511,2.03-1.027,1.737-1.803c-0.072-0.104-0.146-0.206-0.219-0.309
		c-1.822-0.607-4.125,0.416-5.447,1.674c-0.047,0.013-0.095,0.024-0.143,0.037c0,5.08,2.023,9.756,4.825,13.866
		c-0.039,0.895,1.364,3.48,1.879,3.96c0.115,0.286,0.267,0.604,0.453,0.953c0.931,2.127,1.993,4.182,3.477,5.92
		c0.323,0.379,1.099,1.286,1.87,1.955c0.683,0.691,1.313,1.211,1.453,1.123c0.002-0.004,0.004-0.007,0.006-0.011
		C46.928,98.469,46.898,98.357,46.859,98.241z"/>
	<path class="bird_wings_light bird_left" fill-rule="evenodd" clip-rule="evenodd" fill="#F0D26B" d="M24.307,68.202l0.032,0.498
		c0.191-2.344-6.252-5.391-7.093-2.265c0,0.838,1.323,1.471,1.323,2.036c-0.626,0-0.896-0.706-1.366,0.143
		c-0.001,0.033-0.001,0.065-0.002,0.099c0.061,0.056,0.122,0.111,0.183,0.168c-0.314,0.172-0.628,0.345-0.943,0.517
		c-0.009,0.057-0.017,0.113-0.025,0.17c0.171,0.208,0.343,0.415,0.515,0.622c-0.285,0-0.701,0.181-0.701,0.508
		c0.085,0.105,0.17,0.211,0.255,0.315c-0.619,0-1.424,0.051-1.724,0.698c0,0.341,0.837,1.325,1.188,1.325v0.013
		c-1.311,0-2.587,1.031-2.587,2.266c-0.678,0-1.001,0.421-1.444,0.864c0.023,0.328,0.046,0.657,0.07,0.985
		c0,0.211-1.113,0.556-1.113,1.166c-0.521,0.125-1.357,0.658-1.419,1.274c0.009,0.105,0.017,0.212,0.025,0.317
		c-0.096,0.021-0.193,0.044-0.29,0.066c-0.534,0.366-0.855,0.681-0.855,1.353c-0.955,0-0.856,1.208-0.856,1.777
		c-0.921,0.442-1.57,1.125-1.57,2.108c-1.257,0-2.554,1.66-3.29,2.396c-1.293,0-1.413,1.66-1.796,1.924
		c-0.4,0.191-0.88,0.608-0.819,1.116c0.667,0.792,6.02-3.064,6.933-3.604c5.494-3.249,10.675-7.733,14.402-12.93
		C22.36,72.705,24.836,70.198,24.307,68.202z"/>
	<path class="bird_wings_mid bird_left" fill-rule="evenodd" clip-rule="evenodd" fill="#C19B27" d="M2.761,88.942c-0.509,0.307-1.019,0.614-1.528,0.921
		c2.251,0,5.055-1.95,6.924-3.373c0.311-0.236,0.615-0.469,0.922-0.703c-0.513,0.221-1.026,0.441-1.54,0.661
		C5.924,87.16,4.14,87.819,2.761,88.942z M9.385,85.655c-0.048,0-0.097,0.007-0.145,0.009c-0.053,0.041-0.106,0.082-0.16,0.123
		C9.182,85.742,9.284,85.699,9.385,85.655z M9.24,85.664c0.694-0.529,1.381-1.059,2.056-1.588
		c-2.11,0.785-4.222,1.568-6.332,2.354C6.404,86.43,7.862,85.713,9.24,85.664z M14.575,81.744c-0.098,0-0.267,0.016-0.477,0.037
		c-0.07,0.061-0.139,0.12-0.209,0.18C14.118,81.889,14.347,81.816,14.575,81.744z M11.388,84.042
		c-0.016-0.001-0.031-0.001-0.046-0.001c-0.015,0.012-0.031,0.023-0.045,0.035C11.326,84.064,11.357,84.053,11.388,84.042z
		 M16.195,79.903h-0.009l-0.002,0.002C16.187,79.904,16.191,79.904,16.195,79.903z M22.349,65.987
		C22.349,65.987,22.349,65.987,22.349,65.987c0.004-0.011,0.004-0.02,0.008-0.03C22.354,65.967,22.352,65.977,22.349,65.987z
		 M22.349,65.987c-0.15,0.419,0.295,0.604,0.295,0.936c-0.307-0.075-0.614-0.149-0.921-0.224c0,0.642,0.966,1.042,0.966,1.34
		c-0.726,0-1.533-0.712-2.298-0.357c-0.46,0.636,1.934,1.593,2.064,1.843c-0.634,0-3.73-0.035-4.03,0.321
		c0,0.994,2.335,0.895,2.747,1.566c-1.455,0.285-2.91,0.571-4.364,0.857v0.042c0.492,0.803,3.397,0.344,3.539,0.649
		c-0.975,0.308-5.145,1.154-5.522,1.902c-0.009,0.105-0.019,0.211-0.027,0.317c0,0.417,2.73,0.159,3.668,0.159v0.007
		c-1.643,0.52-3.286,1.04-4.928,1.56c-0.252,0.797,3.18,0.688,3.415,0.688c0.116,0.013,0.232,0.024,0.349,0.037
		c-1.757,0.467-3.514,0.934-5.271,1.401c0.014,0.046,0.028,0.091,0.042,0.137c0.386,1.014,3.283,0.735,4.113,0.733
		c1.636-1.56,3.177-3.247,4.586-5.197C22.333,72.547,26.388,67.861,22.349,65.987z M22.323,66.082
		c0.008-0.031,0.017-0.063,0.025-0.095c-0.018-0.009-0.029-0.019-0.047-0.026C22.309,66.001,22.316,66.042,22.323,66.082z
		 M8.541,83.774c-0.001,0.021-0.001,0.043-0.002,0.065c0.037,0.046,0.074,0.091,0.11,0.137c0.897,0.021,1.794,0.043,2.692,0.064
		c0.869-0.683,1.717-1.375,2.548-2.08c-0.051,0.016-0.103,0.033-0.154,0.049C13.028,82.199,8.919,83.101,8.541,83.774z
		 M14.098,81.781c0.71-0.607,1.408-1.23,2.085-1.876c-2.133,0.401-4.266,0.8-6.398,1.201
		C9.785,82.312,12.808,81.916,14.098,81.781z"/>
	<path class="bird_wings_mid bird_right" fill-rule="evenodd" clip-rule="evenodd" fill="#C19B27" d="M43.888,94.938c0.001-0.023,0.003-0.047,0.004-0.07
		c0.076,0.018,0.153,0.037,0.229,0.056c-0.393-0.8-0.786-1.599-1.179-2.398c0.117-0.065,0.234-0.132,0.352-0.198
		c0.202-0.471-1.119-1.336-1.352-1.657c-0.064-0.229,1.127-0.075,1.328-0.136c0-1.125-2.707-1.775-3.186-2.532l2.159,0.457
		c0-1.251-2.653-3.417-2.653-3.417c0.569-0.05,1.139-0.1,1.707-0.149c0.385-0.694-1.875-1.692-2.068-2.18v-0.032l1.57-0.117
		c0-0.99-3.186-1.982-3.686-2.498l0.009-0.032c1.024-0.202,2.05-0.404,3.074-0.606c0.232-0.845-1.791-1.56-2.321-1.651
		c-0.123-0.032-0.245-0.065-0.368-0.098c0.448-0.156,0.896-0.312,1.343-0.47c0-0.447-2.763-0.939-2.977-1.052v-0.013
		c1.268-0.286,2.536-0.572,3.804-0.859c0-1.069-3.549-1.002-4.045-1.168c1.123-0.474,2.246-0.947,3.369-1.422
		c-0.062-0.034-0.125-0.069-0.188-0.104c-0.938-0.173-2.58-0.353-3.438,0.139c-0.131,0.077-0.262,0.155-0.392,0.233
		c0.192-0.457,0.385-0.915,0.576-1.372c-0.058-0.064-0.116-0.129-0.174-0.194c-0.172,0.061-0.345,0.119-0.518,0.18
		c0-0.626,1.64-1.467,1.217-2.156c-1.146-0.274-2.161,1.291-2.562,2.107l-0.377-0.041c-0.408,5.262,3.519,12.397,6.075,16.913
		l1.541,3.064c0.994,1.487,1.564,3.181,2.892,4.39c0.54,0.562,1.08,1.123,1.619,1.686C44.812,96.672,44.35,95.805,43.888,94.938z"
		/>
	<path class="bird_beak" fill-rule="evenodd" clip-rule="evenodd" fill="#807459" d="M34.859,52.907c-1.285,0-2.446,0.512-3.687,0.598
		c-0.008,0.04-0.016,0.081-0.023,0.121c0.042,0.063,0.088,0.11,0.133,0.167c-0.037,0.021-0.074,0.043-0.111,0.063
		c0.006,0.028,0.01,0.058,0.016,0.086c0.63,1.086,1.307,1.616,1.54,2.963c0.02,0.147,0.04,0.294,0.061,0.441
		c0.004,0.006,0.009,0.011,0.013,0.017h0.012c0.103-0.258,0.206-0.515,0.31-0.771c0.579-1.223,1.159-2.445,1.737-3.666
		C34.859,52.92,34.859,52.913,34.859,52.907z"/>
	<path class="bird_leg bird_left" fill-rule="evenodd" clip-rule="evenodd" fill="#F0D26B" d="M23.751,50.975c0.052-0.09,0.1-0.151,0.148-0.219
		c0.005-0.023,0.007-0.049,0.013-0.073L23.751,50.975z M25.247,53.586c-0.084-0.334-0.251-4.348-1.348-2.83
		c-0.26,1.188,0.085,2.23,0.004,3.433c-0.104,1.542-0.489,2.977-0.515,4.534c-0.006,0.32-0.033,2.615,0.818,2.173
		c0.197-1.052,0.394-2.105,0.591-3.156l1.028-2.654c0.002-0.059,0.005-0.117,0.007-0.176
		C25.638,54.468,25.442,54.026,25.247,53.586z"/>
	<path class="bird_foot bird_right" fill-rule="evenodd" clip-rule="evenodd" fill="#807459" d="M35.169,52.573c0.011-0.044,0.008-0.093,0.017-0.137
		c-0.034-0.062-0.069-0.125-0.103-0.188L35.169,52.573z M36.702,46.453l-0.448,0.559c-0.148-0.058-0.297-0.115-0.446-0.174
		c-0.521-0.676,0.704-4.403-0.193-3.994c-0.849,0.59-0.159,1.64-0.468,2.393c-0.02-0.025-0.039-0.051-0.059-0.076
		c-0.295-0.84-0.576-1.943-0.04-2.479v-0.008c-0.11-0.052-0.22-0.104-0.329-0.155c-1.079-0.049-0.492,1.454-0.492,1.955
		c-0.062,0-0.844-1.454-0.448-1.71c0.099,0.01,0.198,0.018,0.298,0.025c-0.227-0.453-0.991-0.154-1.079,0.244
		c0.168,0.462,0.336,0.924,0.504,1.385c0.548,2.308,2.18,5.602,1.685,8.019c0.125,0.229,0.251,0.457,0.377,0.686
		c1.274,0.449-0.037-4.181,0.073-4.988c0.033-0.029,0.066-0.058,0.1-0.086l0.179,0.021c0.946,0.471,0.696-1.641,1.266-1.641
		C37.021,46.437,36.861,46.444,36.702,46.453z"/>
	<path class="bird_foot bird_left" fill-rule="evenodd" clip-rule="evenodd" fill="#807459" d="M24.584,42.182c-0.559,0.113-0.728,1.102-1.056,1.176
		c-0.005-0.002-0.009-0.004-0.013-0.006c-0.197-0.393,0.562-0.77,0.562-0.955c0.002-0.002,0.004-0.003,0.007-0.005
		c-0.043-0.054-0.087-0.108-0.13-0.163c-0.488-0.701-1.067,0.893-1.067,0.893c0-0.26,0.03-1.025,0.405-1.025
		c-0.182-0.061-0.362-0.119-0.544-0.18c-2.619,1.77,0.924,6.799,1.22,8.928l-0.044-0.228c0.107,0.136,0.214,0.271,0.321,0.408
		c1.331,0.142-0.92-3.851-0.92-4.417c0.431,0,0.744,0.246,1.22-0.017c-0.061-0.069-0.12-0.14-0.181-0.21
		c-1.266-0.032-0.687-4.287,0.825-3.43c0.033-0.008,0.066-0.016,0.101-0.023C25.653,42.732,24.865,42.125,24.584,42.182z"/>
	<path class="bird_wings_dark" fill-rule="evenodd" clip-rule="evenodd" fill="#A88714" d="M44.62,96.442c-3.014-3.387-5.575-8.883-7.348-13.56
		c-0.48-0.894-0.901-1.818-1.388-2.701c-0.095-0.714-0.488-1.478-0.854-2.047c-0.251-0.39-0.99-3.704-1.393-5.931
		c0.336-0.63,0.329-1.396,0.816-2.122c0.811-0.46,1.621-0.972,1.756-1.121c0.001-0.012,0.003-0.023,0.004-0.035
		c-0.096-0.421-0.66-0.211-0.898-0.211c0.174-0.333,0.348-0.666,0.521-0.998c-0.034-0.206-0.53,0.121-0.668,0.276
		c0.331-0.532,0.664-1.064,0.995-1.596c-0.017-0.047-0.033-0.093-0.05-0.139c-0.052,0-0.099,0.025-0.148,0.037
		c0.089-0.197,0.162-0.379,0.199-0.519c0.012-0.046,0.063-0.301,0.104-0.592c0.017-0.078,0.021-0.154,0.029-0.233
		c0.039-0.376,0.036-0.738-0.111-0.738c-0.003,0.004-0.005,0.007-0.008,0.011c-0.007-0.014-0.006-0.03-0.014-0.043
		c-0.029-0.003-0.06-0.006-0.089-0.009c-0.285,0.097-0.388,0.402-0.432,0.736c-0.351,0.448-0.701,0.896-1.052,1.346
		c-0.066-0.027-0.133-0.055-0.199-0.082c-0.039-0.108-0.078-0.216-0.117-0.324l-0.42,0.357c-0.216-0.037-0.432-0.075-0.648-0.112
		c-0.433-0.193-0.865-0.386-1.298-0.579c-1.014-0.118-1.854,0.881-2.806,1.064l-0.152-0.015l-0.431-0.762
		c-0.872-0.224-1.311,0.737-2.05,0.737c-2.21-0.86-2.352-3.703-2.352-5.716l-0.121,0.205l-0.627-1.104
		c-0.005,0.008-0.009,0.016-0.013,0.022c-0.035,0.896-0.069,1.791-0.104,2.687c-0.463,0.621-0.562,0.965-0.503,1.19
		c-0.09-0.021-0.181-0.031-0.271-0.01c-0.104,0.094-0.208,0.187-0.313,0.28c0.202,0.321,0.405,0.642,0.606,0.962
		c0-0.045-1.393-0.188-1.393,0.128c0.192,0.139,0.384,0.276,0.577,0.415c-0.147,0.062-0.295,0.123-0.443,0.185
		c0.198,0,0.395,0.092,0.592,0.222c-0.006,0.003-0.012,0.006-0.019,0.01c-0.005,0.036-0.011,0.072-0.016,0.109
		c0.555,0.546,1.111,1.092,1.666,1.638c0.049,0.187,0.083,0.377,0.101,0.563c-1.694,3.693-3.855,7.102-6.607,10.13
		c-1.303,1.277-2.605,2.555-3.909,3.832l0.051,0.053c-2.729,2.318-6.702,4.88-9.035,6.215c-1.428,0.779-2.856,1.56-4.283,2.338
		c0.019,0.011,0.038,0.021,0.057,0.031c2.301,0,10.431-5.957,12.604-7.571c0.732-0.544,2.703-1.625,3.11-2.691
		c0.395-0.374,0.722-0.696,0.831-0.812c1.647-1.222,3.295-2.443,4.942-3.665c0.52-0.87,1.041-1.739,1.56-2.609
		c0.609-0.787,1.218-1.574,1.827-2.361c0.627-0.332,1.254-0.665,1.88-0.997c0.58,0,1.144-0.051,1.708-0.113
		c0.9,0.066,1.817,0.049,2.15,0.196c1.13,1.844,1.1,4.259,1.836,6.315c0.596,0.985,1.191,1.97,1.787,2.955
		c0.108,0.239,0.217,0.479,0.326,0.719c0.57,1.443,1.141,2.888,1.711,4.331c1.96,3.137,3.92,6.274,5.88,9.411
		c0.822,1.375,1.754,2.969,3.043,3.964c0.385,0.129,0.769,0.259,1.152,0.389c0.016,0.011,0.021,0.006,0.021-0.009
		C45.711,97.652,44.999,96.868,44.62,96.442z"/>
	<path class="bird_leg bird_right" fill-rule="evenodd" clip-rule="evenodd" fill="#F0D26B" d="M36.286,54.261c0.029-0.443,0.451-1.786-0.075-2.049
		c-0.122,0-1.047-0.01-1.068,0c-0.574,0.63,0.458,4.866-1.316,6.157c-0.479,0.13-0.959,0.266-1.157,0.612
		c0.053,0.298,0.106,0.596,0.16,0.894c0.346,0.33,0.748,0.459,1.217,0.448c0.144-0.028,0.288-0.093,0.428-0.174
		c0.147,0.161,0.29,0.337,0.418,0.547c0.263,0.661,0.526,1.323,0.789,1.984c0.022,0.026,0.046,0.052,0.068,0.078
		c0.028,0.009,0.057,0.017,0.085,0.024c0.623,0,0.517-1.71,0.489-2.042C36.128,58.304,36.124,56.702,36.286,54.261z"/>
	<path class="bird_head" fill-rule="evenodd" clip-rule="evenodd" fill="#C19B27" d="M36.232,64.212c0.035,0.04,0.053,0.102,0.074,0.159
		c-0.074-1.517-0.629-3.146-1.57-4.255c-0.472-0.428-0.941-0.857-1.413-1.286c-0.633-1.561-0.462-3.318-1.092-4.775
		c-3.904-2.394-5.732-1.371-7.756,2.966l0.261-0.475c-1.144,2.629-2.141,9.364,1.791,10.536c0.69,0.205,1.118-0.964,1.715-0.964
		c0.012,0.006,0.023,0.012,0.035,0.017c0.073,0.225,0.147,0.448,0.221,0.673c0.962,0.822,2.769-1.089,3.634-0.993
		c0.438,0.271,0.876,0.543,1.313,0.813c0.007,0.075,0.007,0.152,0.011,0.228c0.007,0.004,0.015,0.008,0.022,0.011
		c0.2-0.229,0.399-0.458,0.6-0.688c0.055,0.053,0.109,0.104,0.164,0.155c1.168,0.369,1.397-1.874,1.944-2.119
		C36.202,64.214,36.217,64.213,36.232,64.212z"/>
	<path class="bird_mask" fill-rule="evenodd" clip-rule="evenodd" fill="#DAB852" d="M32.067,54.058c-0.433-0.278-0.666-0.357-1.099-0.636
		c-0.073-0.07-0.656-0.128-0.729-0.197c3.152,1.567-1.142,5.89,0.223,6.927h0.056c0.051-0.047,0.101-0.094,0.151-0.141
		c0.008-0.001,0.016-0.003,0.023-0.004c0.181,0.237-0.016,0.958,0.408,0.958c0.054-0.076,0.106-0.152,0.159-0.229
		c0.008,0.001,0.015,0.002,0.022,0.002c0.247,0.367,0.099,1.107,0.608,1.315c0.025,0.001,0.051,0.003,0.076,0.005
		c0.007-0.007,0.013-0.014,0.02-0.021c0.045-0.407,0.091-0.814,0.136-1.223c0.111,0.143,0.222,0.285,0.332,0.428
		c0.134-0.414,0.267-0.828,0.399-1.243c0.06,0.034,0.118,0.068,0.177,0.103C33.833,59.493,32.577,54.797,32.067,54.058z"/>
	<path class="bird_eye" fill-rule="evenodd" clip-rule="evenodd" fill="#563B07" d="M32.463,56.46c-0.095-0.03-0.19-0.061-0.284-0.09
		c0.043,0.016,0.086,0.03,0.13,0.046c-0.753-0.041-0.986,1.233-0.198,1.233C32.562,57.495,32.693,56.853,32.463,56.46z"/>
</g>
</svg>
